<svg width="907" height="599" viewBox="0 0 907 599" fill="none" xmlns="http://www.w3.org/2000/svg">
<path d="M556.774 12.1877C552.263 4.6292 544.109 0 535.307 0H-88C-101.807 0 -113 11.1929 -113 25V574C-113 587.807 -101.807 599 -88 599H862.965C882.372 599 894.378 577.852 884.433 561.188L556.774 12.1877Z" fill="#472183"/>
<mask id="mask0_6_3" style="mask-type:alpha" maskUnits="userSpaceOnUse" x="-113" y="0" width="1002" height="599">
<path d="M556.774 12.1877C552.263 4.6292 544.109 0 535.307 0H-88C-101.807 0 -113 11.1929 -113 25V574C-113 587.807 -101.807 599 -88 599H862.965C882.372 599 894.378 577.852 884.433 561.188L556.774 12.1877Z" fill="#472183"/>
</mask>
<g mask="url(#mask0_6_3)">
<path d="M689.428 175.84L800.497 238.019C802.387 239.077 803.381 241.232 802.958 243.356L778.145 368.204C777.723 370.328 775.981 371.939 773.83 372.194L647.425 387.175C645.274 387.43 643.203 386.271 642.296 384.304L588.987 268.716C588.08 266.749 588.543 264.421 590.133 262.951L683.591 176.532C685.181 175.061 687.537 174.782 689.428 175.84Z" stroke="#56318F" stroke-width="30"/>
<path d="M689.428 175.84L800.497 238.019C802.387 239.077 803.381 241.232 802.958 243.356L778.145 368.204C777.723 370.328 775.981 371.939 773.83 372.194L647.425 387.175C645.274 387.43 643.203 386.271 642.296 384.304L588.987 268.716C588.08 266.749 588.543 264.421 590.133 262.951L683.591 176.532C685.181 175.061 687.537 174.782 689.428 175.84Z" stroke="#56318F" stroke-width="30"/>
<path d="M689.428 175.84L800.497 238.019C802.387 239.077 803.381 241.232 802.958 243.356L778.145 368.204C777.723 370.328 775.981 371.939 773.83 372.194L647.425 387.175C645.274 387.43 643.203 386.271 642.296 384.304L588.987 268.716C588.08 266.749 588.543 264.421 590.133 262.951L683.591 176.532C685.181 175.061 687.537 174.782 689.428 175.84Z" stroke="#56318F" stroke-width="30"/>
<path d="M391.959 63.7479L426.226 122.24C427.869 125.043 427.519 128.586 425.36 131.014L380.32 181.679C378.162 184.108 374.685 184.87 371.708 183.567L309.604 156.388C306.628 155.085 304.829 152.014 305.148 148.781L311.805 81.3178C312.124 78.0843 314.489 75.424 317.663 74.7283L383.882 60.213C387.055 59.5173 390.316 60.9444 391.959 63.7479Z" stroke="#56318F" stroke-width="15"/>
<path d="M391.959 63.7479L426.226 122.24C427.869 125.043 427.519 128.586 425.36 131.014L380.32 181.679C378.162 184.108 374.685 184.87 371.708 183.567L309.604 156.388C306.628 155.085 304.829 152.014 305.148 148.781L311.805 81.3178C312.124 78.0843 314.489 75.424 317.663 74.7283L383.882 60.213C387.055 59.5173 390.316 60.9444 391.959 63.7479Z" stroke="#56318F" stroke-width="15"/>
<path d="M391.959 63.7479L426.226 122.24C427.869 125.043 427.519 128.586 425.36 131.014L380.32 181.679C378.162 184.108 374.685 184.87 371.708 183.567L309.604 156.388C306.628 155.085 304.829 152.014 305.148 148.781L311.805 81.3178C312.124 78.0843 314.489 75.424 317.663 74.7283L383.882 60.213C387.055 59.5173 390.316 60.9444 391.959 63.7479Z" stroke="#56318F" stroke-width="15"/>
<path d="M386.724 533.063L442.519 628.301L369.184 710.796L268.066 666.542L278.906 556.698L386.724 533.063Z" stroke="#56318F" stroke-width="30"/>
<path d="M386.724 533.063L442.519 628.301L369.184 710.796L268.066 666.542L278.906 556.698L386.724 533.063Z" stroke="#56318F" stroke-width="30"/>
<path d="M386.724 533.063L442.519 628.301L369.184 710.796L268.066 666.542L278.906 556.698L386.724 533.063Z" stroke="#56318F" stroke-width="30"/>
<path d="M25.7242 116.063L81.5192 211.301L8.18435 293.796L-92.9341 249.542L-82.0939 139.698L25.7242 116.063Z" stroke="#56318F" stroke-width="30"/>
<path d="M25.7242 116.063L81.5192 211.301L8.18435 293.796L-92.9341 249.542L-82.0939 139.698L25.7242 116.063Z" stroke="#56318F" stroke-width="30"/>
<path d="M25.7242 116.063L81.5192 211.301L8.18435 293.796L-92.9341 249.542L-82.0939 139.698L25.7242 116.063Z" stroke="#56318F" stroke-width="30"/>
</g>
</svg>
